<svg id="Layer_1" enable-background="new 0 0 512 512" height="512" viewBox="0 0 512 512" width="512" xmlns="http://www.w3.org/2000/svg"><g><path d="m245.003 21.996c-135.312 0-245.003 109.691-245.003 245.002 0 37.483 8.43 72.993 23.478 104.758l106.337 111.516c34.339 18.326 73.546 28.728 115.188 28.728 135.31 0 245.002-109.691 245.002-245.002-.001-135.311-109.692-245.002-245.002-245.002z" fill="#2a428c"/><path d="m32.225 388.529 82.926-46.249-30.41-29.993-61.263 59.469c2.707 5.714 5.621 11.311 8.747 16.773z" fill="#fcad6d"/><path d="m123.078 275.072c20.926-20.313 34.624-46.794 39.763-75.501 4.395-24.55 11.699-46.868 17.472-62.17 3.831-10.155 8.722-19.851 14.206-29.218 8.384-14.322 11.351-38.867 12.514-48.609.835-6.994 6.61-12.345 13.647-12.651 7.903-.344 14.618 5.754 14.984 13.656.532 11.51.399 39.042-3.894 58.116-2.184 9.706 9.23 16.55 16.71 9.99 18.772-16.464 49.264-50.547 94.961-121.101 5.101-7.876 15.712-9.974 23.412-4.61 7.141 4.974 9.229 14.613 4.778 22.09-10.29 17.283-36.638 56.003-55.712 84.152-2.615 3.859 2.345 8.32 5.907 5.313 25.661-21.666 67.403-57.145 88.84-76.632 6.161-5.6 15.634-5.36 21.521.527 5.884 5.884 6.122 15.341.539 21.51-14.399 15.908-57.01 53.791-91.215 83.932-3.125 2.754.374 7.674 3.998 5.621 22.882-12.961 55.096-30.094 80.816-50.587 6.723-5.357 16.568-3.922 21.473 3.138l.062.089c3.338 4.804 3.471 10.956.716 15.81-5.208-1.887-11.255-.896-15.637 3.058-64.092 57.851-102.443 82.274-123.329 92.574-9.922 4.895-20.222-5.745-15.083-15.542 8.423-16.054 15.796-41.591 18.698-54.838 1.551-7.082-2.964-14.124-10.064-15.699-6.359-1.413-12.721 1.95-15.137 7.991-3.526 8.81-12.888 32.211-24.927 44.105-22.685 22.41-42.229 54.635-54.019 79.745-12.719 27.09-32.924 48.928-58.43 63.153l-36.967 20.616-30.1-29.687z" fill="#4fabf7"/><path d="m209.073 259.333c.583-1.241 1.19-2.504 1.81-3.778-1.318-3.479-4.427-6.137-8.327-6.817-24.066-4.194-34.674-23.123-38.855-34.009-.682-1.775-1.809-3.27-3.214-4.404-6.359 24.538-19.124 46.998-37.409 64.747l-39.497 38.34 30.1 29.687 36.962-20.614c25.506-14.224 45.711-36.062 58.43-63.152z" fill="#1e9ef4"/><path d="m31.663 387.524c22.926 40.492 57.042 73.806 98.152 95.747 14.512-9.875 28.678-19.485 41.98-28.466l-64.281-109.584z" fill="#f9ba8f"/><path d="m105.781 346.189 44.302-24.707c25.471-14.205 45.555-36.238 57.949-62.637 10.599-22.576 23.431-42.244 32.967-55.53 6.329-8.818 13.563-16.918 21.284-24.546 11.805-11.663 21.024-34.605 24.668-43.713 2.617-6.539 9.58-10.214 16.456-8.688 7.723 1.714 12.631 9.342 10.939 17.069-2.465 11.255-9.72 37.814-18.803 55.128-4.621 8.81 4.633 18.376 13.555 13.975 22.393-11.045 60.668-36.074 123.068-92.397 6.966-6.288 17.758-5.567 23.807 1.606 5.611 6.653 5.133 16.503-1.102 22.574-14.412 14.031-49.884 44.611-75.594 66.865-3.524 3.051.112 8.644 4.33 6.661 30.394-14.287 79.897-37.753 105.647-51.027 7.4-3.815 16.488-1.131 20.651 6.079 4.161 7.206 1.943 16.403-5.047 20.917-18.025 11.639-68.989 37.202-109.83 57.464-3.731 1.851-1.625 7.509 2.407 6.464 25.456-6.597 61.007-14.808 91.156-27.947 7.881-3.435 17.018.5 19.929 8.589l.037.102c2.526 7.017-.531 14.82-7.16 18.238-16.405 8.458-60.94 26.309-94.909 37.756-2.416.814-1.581 4.416.946 4.086 20.092-2.622 50.062-7.173 74.156-13.52 8.137-2.144 16.415 2.915 18.208 11.137 1.557 7.144-2.339 14.357-9.174 16.954-17.809 6.767-52.601 19.251-82.856 25.73-10.146 2.173-20.099 5.116-29.806 8.783-31.039 11.726-95.87 36.936-124.242 53.316-11.342 6.548-43.725 28.031-83.574 54.949z" fill="#73c3f9"/><path d="m253.721 400.97c7.634-4.407 17.92-9.456 29.464-14.707l-.002-.001c-71.083-24.507-73.355-98.827-71.631-126.317.13-2.075-.349-4.045-1.285-5.746-.754 1.535-1.501 3.081-2.235 4.645-12.394 26.399-32.478 48.432-57.949 62.637l-44.302 24.707 64.366 109.73c39.849-26.916 72.232-48.399 83.574-54.948z" fill="#4fabf7"/><g fill="#3c58a0"><path d="m0 266.998c0 4.11.105 8.196.306 12.257 15 8.627 38.33 10.042 65.541-3.042 47.614-22.895 71.173-93.76 71.173-143.605 0-28.454-18.305-51.092-34.017-65.285-62.344 44.415-103.003 117.296-103.003 199.675z"/><path d="m450.942 399.756c-16.053-11.742-40.543-22.091-70.922-11.228-47.911 17.131-157.721 62.793-155.704 122.594 6.821.57 13.717.878 20.686.878 86.381 0 162.314-44.709 205.94-112.244z"/></g></g></svg>