<svg id="flat" height="512" viewBox="0 0 512 512" width="512" xmlns="http://www.w3.org/2000/svg"><path d="m344 80h144v88h-144z" fill="#b6caf0"/><path d="m440 240v-120h-32v96h-32v24z" fill="#d1e4ff"/><path d="m352 240h-136a32 32 0 0 1 -32-32v-32a32 32 0 0 1 32-32h65.824a32 32 0 0 1 29.96257 20.764l16.21343 43.236h24z" fill="#548aff"/><path d="m24 72h128v368h-128z" fill="#c78640"/><path d="m184 240h272a32 32 0 0 1 32 32v168a0 0 0 0 1 0 0h-336a0 0 0 0 1 0 0v-168a32 32 0 0 1 32-32z" fill="#b1712c"/><path d="m240 288h160v96h-160z" fill="#e3a15b"/><path d="m232 112h48a0 0 0 0 1 0 0v24a24 24 0 0 1 -24 24 24 24 0 0 1 -24-24v-24a0 0 0 0 1 0 0z" fill="#ffceb6"/><path d="m232 112v-16l19.359-12.906a18.42223 18.42223 0 0 1 10.21879-3.094 18.42218 18.42218 0 0 1 18.42221 18.42219v13.57781z" fill="#b1712c"/><path d="m264 208h16a24 24 0 0 1 24 24v8h-40z" fill="#ffceb6"/><path d="m264 224h-32.001a7.99934 7.99934 0 0 1 -7.58884-5.46973l-5.47016-16.41054a8.00029 8.00029 0 0 1 5.05954-10.11957 8.0003 8.0003 0 0 1 10.12009 5.06009l3.64599 10.93975h26.23438z" fill="#4f7ff7"/><g fill="#c78640"><path d="m280 312h32v16h-32z"/><path d="m328 312h32v16h-32z"/><path d="m304 344h72v16h-72z"/><path d="m264 344h24v16h-24z"/></g><path d="m24 320h35.05566l5.78907 11.57812a8.00022 8.00022 0 0 0 7.15527 4.42188h32a8.00022 8.00022 0 0 0 7.15527-4.42188l5.78907-11.57812h35.05566v-16h-128z" fill="#b1712c"/><path d="m24 200h35.05566l5.78907 11.57812a8.00022 8.00022 0 0 0 7.15527 4.42188h32a8.00022 8.00022 0 0 0 7.15527-4.42188l5.78907-11.57812h35.05566v-16h-128z" fill="#b1712c"/><path d="m24 72v16h35.05566l5.78907 11.57812a8.00022 8.00022 0 0 0 7.15527 4.42188h32a8.00022 8.00022 0 0 0 7.15527-4.42188l5.78907-11.57812h35.05566v-16z" fill="#b1712c"/><path d="m352 208h16a24 24 0 0 1 24 24v8h-40z" fill="#ffceb6"/></svg>