<?xml version="1.0" encoding="iso-8859-1"?>
<!-- Generator: Adobe Illustrator 19.0.0, SVG Export Plug-In . SVG Version: 6.00 Build 0)  -->
<svg version="1.1" id="Layer_1" xmlns="http://www.w3.org/2000/svg" xmlns:xlink="http://www.w3.org/1999/xlink" x="0px" y="0px"
	 viewBox="0 0 512 512" style="enable-background:new 0 0 512 512;" xml:space="preserve">
<path style="fill:#E30026;" d="M8.44,96.762c-4.661,0-8.44,3.779-8.44,8.44v11.378l16.879,22.506v-33.883
	C16.879,100.541,13.1,96.762,8.44,96.762z"/>
<polygon style="fill:#FE676C;" points="0,116.58 0,383.417 56.264,408.552 33.758,116.58 "/>
<path style="fill:#FF3845;" d="M410.891,313.162c-0.899-0.001-1.813-0.109-2.724-0.336c-64.641-16.132-111.249-35.428-146.68-60.727
	c-48.682-34.761-73.365-80.356-73.365-135.519H33.759v269.467l399.638,31.128L410.891,313.162z"/>
<path style="fill:#E30026;" d="M414.242,337.463L210.628,229.107l-45.011-157.54c-13.665,10.265-22.505,26.605-22.505,45.012
	c0,37.197,9.002,71.545,26.755,102.087c15.376,26.452,37.402,50.025,65.465,70.063c40.179,28.689,91.636,50.222,161.937,67.767
	c6.773,1.69,13.093,3.181,19.204,4.623L414.242,337.463z"/>
<path style="fill:#B70E21;" d="M199.374,116.58V60.316c-12.667,0-24.354,4.188-33.758,11.252v45.012
	c0,62.85,27.855,114.607,82.792,153.834c37.805,26.993,86.836,47.408,154.308,64.246c3.971,0.99,7.791,1.912,11.525,2.802
	l-3.351-35.555C311.939,277.213,199.374,231.134,199.374,116.58z"/>
<path style="fill:#E7D4A7;" d="M410.891,301.908v34.753l56.098,65.524L512,383.417C512,319.233,473.166,317.449,410.891,301.908z"/>
<path style="fill:#F3E6C5;" d="M469.851,354.961c-8.644-6.41-26.981-10.736-48.211-15.746c-3.499-0.826-7.078-1.672-10.749-2.556
	v69.263l67.351-14.991v-7.513C478.242,361.185,472.574,356.981,469.851,354.961z"/>
<polygon style="fill:#F9F3E2;" points="0,383.417 0,417.551 45.011,429.917 33.758,383.417 "/>
<polygon style="fill:#F3E6C5;" points="318.578,383.417 33.758,383.417 33.758,429.917 341.083,428.804 "/>
<polygon style="fill:#CEBC96;" points="478.242,383.417 455.736,417.551 478.242,451.684 512,451.684 512,383.417 "/>
<rect x="318.577" y="383.415" style="fill:#E7D4A7;" width="159.665" height="68.267"/>
<polygon style="fill:#F3E6C5;" points="0,417.551 0,451.684 33.758,451.684 45.011,434.617 33.758,417.551 "/>
<g>
	<polygon style="fill:#E7D4A7;" points="33.758,417.551 33.758,451.684 318.578,451.684 329.83,417.551 	"/>
	<path style="fill:#E7D4A7;" d="M214.722,161.501c-1.44-4.434-6.204-6.861-10.634-5.418l-58.864,19.125
		c-4.432,1.44-6.86,6.201-5.418,10.634c1.44,4.434,6.204,6.861,10.634,5.418l58.864-19.125
		C213.736,170.695,216.162,165.933,214.722,161.501z"/>
	<path style="fill:#E7D4A7;" d="M236.154,201.456c-2.74-3.77-8.016-4.606-11.788-1.868l-50.08,36.386
		c-3.771,2.74-4.607,8.018-1.868,11.788c2.74,3.77,8.016,4.606,11.788,1.868l50.08-36.386
		C238.057,210.504,238.894,205.227,236.154,201.456z"/>
	<path style="fill:#E7D4A7;" d="M268.513,232.831c-3.772-2.741-9.049-1.904-11.788,1.867l-36.383,50.077
		c-2.74,3.771-1.904,9.048,1.867,11.788c3.772,2.741,9.049,1.904,11.788-1.867l36.383-50.077
		C273.12,240.848,272.284,235.571,268.513,232.831z"/>
</g>
<circle style="fill:#FFFFFF;" cx="75.956" cy="237.534" r="42.198"/>
<g>
</g>
<g>
</g>
<g>
</g>
<g>
</g>
<g>
</g>
<g>
</g>
<g>
</g>
<g>
</g>
<g>
</g>
<g>
</g>
<g>
</g>
<g>
</g>
<g>
</g>
<g>
</g>
<g>
</g>
</svg>
